<?xml version="1.0" encoding="utf-8"?>
<!-- Svg Vector Icons : http://www.onlinewebfonts.com/icon -->
<!DOCTYPE svg PUBLIC "-//W3C//DTD SVG 1.1//EN" "http://www.w3.org/Graphics/SVG/1.1/DTD/svg11.dtd">
<svg version="1.1" xmlns="http://www.w3.org/2000/svg" xmlns:xlink="http://www.w3.org/1999/xlink" x="0px" y="0px" viewBox="0 0 256 256" enable-background="new 0 0 256 256" xml:space="preserve">
<metadata> Svg Vector Icons : http://www.onlinewebfonts.com/icon </metadata>
<g><g><path fill="#000000" d="M211.4,44.6C189.1,22.3,159.5,10,128,10c-31.5,0-61.1,12.3-83.4,34.6C22.3,66.9,10,96.5,10,128c0,31.5,12.3,61.1,34.6,83.4C66.9,233.7,96.5,246,128,246c31.5,0,61.1-12.3,83.4-34.6c22.3-22.3,34.6-51.9,34.6-83.4C246,96.5,233.7,66.9,211.4,44.6z M128,227.7c-55,0-99.7-44.7-99.7-99.7c0-55,44.7-99.7,99.7-99.7c55,0,99.7,44.7,99.7,99.7C227.7,183,183,227.7,128,227.7z"/><path fill="#000000" d="M86.8,160h-0.1L75,77.7H47.7l21.1,103.8h35.3L125,77.7H97.9L86.8,160z"/><path fill="#000000" d="M206.6,109V84.9l-6.5-7.1h-54.4l-7.4,7.1v40.5l41.6,20.2v13.1h-15.1v-15l-26.5,1.8v29.2l7.4,6.9h54.4l6.3-6.9V130L165,109.8V100h15.2v10.8L206.6,109z"/></g></g>
</svg>